<mxfile host="app.diagrams.net" modified="2021-08-02T09:18:07.869Z" agent="5.0 (Macintosh; Intel Mac OS X 10_15_7) AppleWebKit/605.1.15 (KHTML, like Gecko) Version/14.1.2 Safari/605.1.15" etag="ifEz0svvaeUdNklaXBbW" version="14.9.3" type="github">
  <diagram id="LMC_9Jz_wSI98UaPzMmB" name="Page-1">
    <mxGraphModel dx="1248" dy="828" grid="1" gridSize="10" guides="1" tooltips="1" connect="1" arrows="1" fold="1" page="1" pageScale="1" pageWidth="827" pageHeight="1169" math="0" shadow="0">
      <root>
        <mxCell id="0" />
        <mxCell id="1" parent="0" />
        <mxCell id="E566JUrbkgaaEPflek8D-19" value="" style="rounded=1;whiteSpace=wrap;html=1;" vertex="1" parent="1">
          <mxGeometry x="45" y="380" width="120" height="60" as="geometry" />
        </mxCell>
        <mxCell id="E566JUrbkgaaEPflek8D-2" value="" style="outlineConnect=0;fontColor=#232F3E;gradientColor=none;fillColor=#3334B9;strokeColor=none;dashed=0;verticalLabelPosition=bottom;verticalAlign=top;align=center;html=1;fontSize=12;fontStyle=0;aspect=fixed;pointerEvents=1;shape=mxgraph.aws4.rds_postgresql_instance;" vertex="1" parent="1">
          <mxGeometry x="365" y="195" width="120" height="120" as="geometry" />
        </mxCell>
        <mxCell id="E566JUrbkgaaEPflek8D-4" value="" style="aspect=fixed;html=1;points=[];align=center;image;fontSize=12;image=img/lib/mscae/Docker.svg;" vertex="1" parent="1">
          <mxGeometry x="385" y="240" width="43.59" height="35.74" as="geometry" />
        </mxCell>
        <mxCell id="E566JUrbkgaaEPflek8D-7" value="" style="dashed=0;outlineConnect=0;html=1;align=center;labelPosition=center;verticalLabelPosition=bottom;verticalAlign=top;shape=mxgraph.weblogos.json" vertex="1" parent="1">
          <mxGeometry x="75" y="390" width="20" height="20" as="geometry" />
        </mxCell>
        <mxCell id="E566JUrbkgaaEPflek8D-8" value="" style="dashed=0;outlineConnect=0;html=1;align=center;labelPosition=center;verticalLabelPosition=bottom;verticalAlign=top;shape=mxgraph.weblogos.json" vertex="1" parent="1">
          <mxGeometry x="115" y="390" width="20" height="20" as="geometry" />
        </mxCell>
        <mxCell id="E566JUrbkgaaEPflek8D-9" value="meta.json" style="text;html=1;strokeColor=none;fillColor=none;align=center;verticalAlign=middle;whiteSpace=wrap;rounded=0;" vertex="1" parent="1">
          <mxGeometry x="55" y="415" width="40" height="20" as="geometry" />
        </mxCell>
        <mxCell id="E566JUrbkgaaEPflek8D-10" value="event.json" style="text;html=1;strokeColor=none;fillColor=none;align=center;verticalAlign=middle;whiteSpace=wrap;rounded=0;" vertex="1" parent="1">
          <mxGeometry x="115" y="415" width="40" height="20" as="geometry" />
        </mxCell>
        <mxCell id="E566JUrbkgaaEPflek8D-35" value="Training Micro-Service" style="text;html=1;strokeColor=none;fillColor=none;align=center;verticalAlign=middle;whiteSpace=wrap;rounded=0;" vertex="1" parent="1">
          <mxGeometry x="225" y="520" width="220" height="20" as="geometry" />
        </mxCell>
        <mxCell id="E566JUrbkgaaEPflek8D-50" value="" style="edgeStyle=orthogonalEdgeStyle;rounded=0;orthogonalLoop=1;jettySize=auto;html=1;" edge="1" parent="1" source="E566JUrbkgaaEPflek8D-37" target="E566JUrbkgaaEPflek8D-49">
          <mxGeometry relative="1" as="geometry" />
        </mxCell>
        <mxCell id="E566JUrbkgaaEPflek8D-37" value="Prediction Micro-Service" style="text;html=1;strokeColor=none;fillColor=none;align=center;verticalAlign=middle;whiteSpace=wrap;rounded=0;" vertex="1" parent="1">
          <mxGeometry x="405" y="520" width="220" height="20" as="geometry" />
        </mxCell>
        <mxCell id="E566JUrbkgaaEPflek8D-38" value="" style="image;html=1;image=img/lib/clip_art/computers/Software_128x128.png" vertex="1" parent="1">
          <mxGeometry x="635" y="235" width="80" height="80" as="geometry" />
        </mxCell>
        <mxCell id="E566JUrbkgaaEPflek8D-39" value="Alembic Data Migration" style="text;html=1;strokeColor=none;fillColor=none;align=center;verticalAlign=middle;whiteSpace=wrap;rounded=0;" vertex="1" parent="1">
          <mxGeometry x="565" y="315" width="220" height="20" as="geometry" />
        </mxCell>
        <mxCell id="E566JUrbkgaaEPflek8D-40" value="" style="shape=image;html=1;verticalAlign=top;verticalLabelPosition=bottom;labelBackgroundColor=#ffffff;imageAspect=0;aspect=fixed;image=https://cdn4.iconfinder.com/data/icons/logos-and-brands/512/97_Docker_logo_logos-128.png" vertex="1" parent="1">
          <mxGeometry x="285" y="410" width="30" height="30" as="geometry" />
        </mxCell>
        <mxCell id="E566JUrbkgaaEPflek8D-44" value="" style="shape=image;html=1;verticalAlign=top;verticalLabelPosition=bottom;labelBackgroundColor=#ffffff;imageAspect=0;aspect=fixed;image=https://cdn4.iconfinder.com/data/icons/logos-and-brands/512/267_Python_logo-128.png" vertex="1" parent="1">
          <mxGeometry x="255" y="455" width="30" height="30" as="geometry" />
        </mxCell>
        <mxCell id="E566JUrbkgaaEPflek8D-47" value="" style="shape=image;html=1;verticalAlign=top;verticalLabelPosition=bottom;labelBackgroundColor=#ffffff;imageAspect=0;aspect=fixed;image=https://cdn2.iconfinder.com/data/icons/new-year-resolutions/64/resolutions-07-128.png" vertex="1" parent="1">
          <mxGeometry x="283" y="430" width="104" height="104" as="geometry" />
        </mxCell>
        <mxCell id="E566JUrbkgaaEPflek8D-49" value="" style="outlineConnect=0;dashed=0;verticalLabelPosition=bottom;verticalAlign=top;align=center;html=1;shape=mxgraph.aws3.android;fillColor=#EE472A;gradientColor=none;" vertex="1" parent="1">
          <mxGeometry x="478.25" y="436" width="73.5" height="84" as="geometry" />
        </mxCell>
        <mxCell id="E566JUrbkgaaEPflek8D-51" value="" style="shape=image;html=1;verticalAlign=top;verticalLabelPosition=bottom;labelBackgroundColor=#ffffff;imageAspect=0;aspect=fixed;image=https://cdn4.iconfinder.com/data/icons/logos-and-brands/512/267_Python_logo-128.png" vertex="1" parent="1">
          <mxGeometry x="575" y="455" width="30" height="30" as="geometry" />
        </mxCell>
        <mxCell id="E566JUrbkgaaEPflek8D-52" value="" style="shape=image;html=1;verticalAlign=top;verticalLabelPosition=bottom;labelBackgroundColor=#ffffff;imageAspect=0;aspect=fixed;image=https://cdn4.iconfinder.com/data/icons/logos-and-brands/512/97_Docker_logo_logos-128.png" vertex="1" parent="1">
          <mxGeometry x="535" y="410" width="30" height="30" as="geometry" />
        </mxCell>
        <mxCell id="E566JUrbkgaaEPflek8D-62" style="edgeStyle=orthogonalEdgeStyle;rounded=0;orthogonalLoop=1;jettySize=auto;html=1;exitX=0.5;exitY=0;exitDx=0;exitDy=0;entryX=0.5;entryY=1;entryDx=0;entryDy=0;" edge="1" parent="1" source="E566JUrbkgaaEPflek8D-53" target="E566JUrbkgaaEPflek8D-35">
          <mxGeometry relative="1" as="geometry" />
        </mxCell>
        <mxCell id="E566JUrbkgaaEPflek8D-53" value="" style="strokeColor=#dddddd;shadow=1;strokeWidth=1;rounded=1;absoluteArcSize=1;arcSize=2;" vertex="1" parent="1">
          <mxGeometry x="265" y="575" width="140" height="70" as="geometry" />
        </mxCell>
        <mxCell id="E566JUrbkgaaEPflek8D-54" value="API-Endpoint" style="dashed=0;connectable=0;html=1;fillColor=#5184F3;strokeColor=none;shape=mxgraph.gcp2.hexIcon;prIcon=cloud_endpoints;part=1;labelPosition=right;verticalLabelPosition=middle;align=left;verticalAlign=middle;spacingLeft=5;fontColor=#999999;fontSize=12;" vertex="1" parent="E566JUrbkgaaEPflek8D-53">
          <mxGeometry y="0.5" width="44" height="39" relative="1" as="geometry">
            <mxPoint x="5" y="-19.5" as="offset" />
          </mxGeometry>
        </mxCell>
        <mxCell id="E566JUrbkgaaEPflek8D-55" value="" style="strokeColor=#dddddd;shadow=1;strokeWidth=1;rounded=1;absoluteArcSize=1;arcSize=2;" vertex="1" parent="1">
          <mxGeometry x="455" y="575" width="140" height="70" as="geometry" />
        </mxCell>
        <mxCell id="E566JUrbkgaaEPflek8D-56" value="API-Endpoint" style="dashed=0;connectable=0;html=1;fillColor=#5184F3;strokeColor=none;shape=mxgraph.gcp2.hexIcon;prIcon=cloud_endpoints;part=1;labelPosition=right;verticalLabelPosition=middle;align=left;verticalAlign=middle;spacingLeft=5;fontColor=#999999;fontSize=12;" vertex="1" parent="E566JUrbkgaaEPflek8D-55">
          <mxGeometry y="0.5" width="44" height="39" relative="1" as="geometry">
            <mxPoint x="5" y="-19.5" as="offset" />
          </mxGeometry>
        </mxCell>
        <mxCell id="E566JUrbkgaaEPflek8D-57" value="http://localhost:7101" style="text;html=1;strokeColor=none;fillColor=none;align=center;verticalAlign=middle;whiteSpace=wrap;rounded=0;" vertex="1" parent="1">
          <mxGeometry x="225" y="645" width="220" height="20" as="geometry" />
        </mxCell>
        <mxCell id="E566JUrbkgaaEPflek8D-58" value="http://localhost:9101" style="text;html=1;strokeColor=none;fillColor=none;align=center;verticalAlign=middle;whiteSpace=wrap;rounded=0;" vertex="1" parent="1">
          <mxGeometry x="415" y="645" width="220" height="20" as="geometry" />
        </mxCell>
        <mxCell id="E566JUrbkgaaEPflek8D-59" value="&lt;span style=&quot;font-style: normal ; letter-spacing: normal ; text-indent: 0px ; text-transform: none ; word-spacing: 0px ; text-decoration: none ; color: rgb(36 , 41 , 46) ; text-align: left ; background-color: rgb(255 , 255 , 255) ; float: none ; display: inline&quot;&gt;&lt;font style=&quot;font-size: 11px&quot;&gt;&lt;b&gt;[GET]&lt;/b&gt; /api/recommender/training&lt;/font&gt;&lt;/span&gt;" style="text;whiteSpace=wrap;html=1;" vertex="1" parent="1">
          <mxGeometry x="250" y="665" width="170" height="50" as="geometry" />
        </mxCell>
        <mxCell id="E566JUrbkgaaEPflek8D-60" value="&lt;span style=&quot;font-style: normal ; letter-spacing: normal ; text-indent: 0px ; text-transform: none ; word-spacing: 0px ; text-decoration: none ; color: rgb(36 , 41 , 46) ; text-align: left ; background-color: rgb(255 , 255 , 255) ; float: none ; display: inline ; font-size: 11px&quot;&gt;&lt;font style=&quot;font-size: 11px&quot;&gt;&lt;b&gt;[POST]&lt;/b&gt; /api/recommender/prediction&lt;/font&gt;&lt;/span&gt;" style="text;whiteSpace=wrap;html=1;" vertex="1" parent="1">
          <mxGeometry x="430" y="665" width="190" height="25" as="geometry" />
        </mxCell>
        <mxCell id="E566JUrbkgaaEPflek8D-66" style="edgeStyle=orthogonalEdgeStyle;rounded=0;orthogonalLoop=1;jettySize=auto;html=1;exitX=0.5;exitY=0;exitDx=0;exitDy=0;entryX=0.5;entryY=1;entryDx=0;entryDy=0;" edge="1" parent="1">
          <mxGeometry relative="1" as="geometry">
            <mxPoint x="520" y="575" as="sourcePoint" />
            <mxPoint x="520" y="540" as="targetPoint" />
          </mxGeometry>
        </mxCell>
        <mxCell id="E566JUrbkgaaEPflek8D-67" value="" style="shape=flexArrow;endArrow=classic;startArrow=classic;html=1;" edge="1" parent="1">
          <mxGeometry width="100" height="100" relative="1" as="geometry">
            <mxPoint x="345" y="430" as="sourcePoint" />
            <mxPoint x="395" y="320" as="targetPoint" />
          </mxGeometry>
        </mxCell>
        <mxCell id="E566JUrbkgaaEPflek8D-68" value="" style="shape=flexArrow;endArrow=classic;startArrow=classic;html=1;" edge="1" parent="1">
          <mxGeometry width="100" height="100" relative="1" as="geometry">
            <mxPoint x="505" y="430" as="sourcePoint" />
            <mxPoint x="455" y="320" as="targetPoint" />
          </mxGeometry>
        </mxCell>
        <mxCell id="E566JUrbkgaaEPflek8D-69" value="&lt;b&gt;Data Source&lt;/b&gt;" style="text;html=1;strokeColor=none;fillColor=none;align=center;verticalAlign=middle;whiteSpace=wrap;rounded=0;" vertex="1" parent="1">
          <mxGeometry x="70" y="350" width="70" height="5" as="geometry" />
        </mxCell>
        <mxCell id="E566JUrbkgaaEPflek8D-72" value="&lt;font style=&quot;font-size: 11px&quot;&gt;recommendation-engineer/data/&lt;/font&gt;" style="text;html=1;strokeColor=none;fillColor=none;align=center;verticalAlign=middle;whiteSpace=wrap;rounded=0;" vertex="1" parent="1">
          <mxGeometry x="20" y="440" width="170" height="20" as="geometry" />
        </mxCell>
        <mxCell id="E566JUrbkgaaEPflek8D-73" value="" style="shape=flexArrow;endArrow=classic;startArrow=classic;html=1;" edge="1" parent="1">
          <mxGeometry width="100" height="100" relative="1" as="geometry">
            <mxPoint x="180" y="410" as="sourcePoint" />
            <mxPoint x="260" y="450" as="targetPoint" />
          </mxGeometry>
        </mxCell>
        <mxCell id="E566JUrbkgaaEPflek8D-74" value="" style="shape=flexArrow;endArrow=classic;startArrow=classic;html=1;exitX=0;exitY=0.5;exitDx=0;exitDy=0;" edge="1" parent="1" source="E566JUrbkgaaEPflek8D-38" target="E566JUrbkgaaEPflek8D-2">
          <mxGeometry width="100" height="100" relative="1" as="geometry">
            <mxPoint x="515" y="440" as="sourcePoint" />
            <mxPoint x="465" y="330" as="targetPoint" />
          </mxGeometry>
        </mxCell>
        <mxCell id="E566JUrbkgaaEPflek8D-81" value="&lt;b&gt;&lt;font style=&quot;font-size: 18px&quot;&gt;RECOMMENDATION-ENGINEE&lt;/font&gt;&lt;/b&gt;" style="text;html=1;strokeColor=none;fillColor=none;align=center;verticalAlign=middle;whiteSpace=wrap;rounded=0;" vertex="1" parent="1">
          <mxGeometry x="285" y="40" width="270" height="40" as="geometry" />
        </mxCell>
      </root>
    </mxGraphModel>
  </diagram>
</mxfile>
